<svg width="30" height="34" viewBox="0 0 30 34" fill="none" xmlns="http://www.w3.org/2000/svg">
<path d="M21.5372 17.9477C21.5135 17.9239 21.4897 17.9477 21.4659 17.9477C21.3946 17.9952 21.3471 18.0428 21.2758 18.0903C21.252 18.1141 21.2282 18.1141 21.2044 18.1379C21.1807 18.1379 21.1807 18.1379 21.1569 18.1616C21.1093 18.1141 21.1094 18.0666 21.0856 18.019C21.0143 17.8764 20.9429 17.71 20.8716 17.5674C20.8003 17.4009 20.729 17.2345 20.6339 17.0681C20.5864 16.9731 20.5388 16.8542 20.4913 16.7591C20.4437 16.6165 20.3724 16.4738 20.3249 16.3312C20.2536 16.1648 20.206 15.9746 20.1347 15.8082C20.0872 15.6418 20.0158 15.4517 19.9683 15.2853C19.9208 15.1426 19.897 15.0238 19.8494 14.8811C19.8019 14.7385 19.7781 14.5959 19.7306 14.4532C19.683 14.2868 19.6593 14.1442 19.6117 13.9778C19.588 13.8827 19.5642 13.7876 19.5404 13.6925C19.4929 13.5261 19.4691 13.336 19.4216 13.1696C19.3978 13.0983 19.3978 13.0032 19.374 12.9319C19.3265 12.6941 19.2789 12.4802 19.2551 12.2425C19.2314 12.1474 19.2314 12.0523 19.2076 11.981C19.2076 11.9334 19.1838 11.9097 19.1363 11.8859C19.0412 11.8383 18.9461 11.7908 18.851 11.7195C18.6846 11.6244 18.4945 11.5293 18.3043 11.458C18.1854 11.4105 18.0666 11.3391 17.9239 11.2916C17.8051 11.2441 17.6862 11.1965 17.5674 11.149C17.4485 11.1252 17.3534 11.0777 17.2345 11.0301C17.1632 11.0063 17.0919 10.9826 16.9968 10.9588C16.8542 10.9113 16.7116 10.8875 16.5927 10.8399C16.5214 10.8162 16.4739 10.8162 16.4025 10.7924C16.2124 10.7448 16.046 10.6973 15.8558 10.6735C15.7845 10.6498 15.7132 10.6498 15.6418 10.6735C15.4754 10.7211 15.309 10.7448 15.1426 10.8162C15.0238 10.8637 14.8811 10.8875 14.7623 10.935C14.6434 10.9826 14.5246 11.0063 14.4295 11.0539C14.2868 11.1014 14.1442 11.149 14.0016 11.2203C13.9065 11.2678 13.7876 11.2916 13.6926 11.3391C13.5737 11.3867 13.4548 11.4342 13.3597 11.4818C13.2409 11.5293 13.0983 11.6006 12.9794 11.6482C12.8368 11.7195 12.6704 11.7908 12.5277 11.8621C12.3613 11.9572 12.1949 12.0523 12.0285 12.1474C11.7195 12.3138 11.4342 12.504 11.149 12.6941C10.9826 12.813 10.8162 12.9319 10.626 13.0507C10.412 13.1933 10.2219 13.3597 10.0317 13.5024C9.84152 13.6688 9.62757 13.8352 9.4374 14.0016C9.31854 14.0967 9.22345 14.1918 9.12837 14.2868C9.03328 14.3819 9.00951 14.5008 9.03328 14.6434C9.05705 14.7385 9.1046 14.8098 9.15214 14.8811C9.22345 15 9.29477 15.0951 9.38986 15.2139C9.4374 15.2853 9.48494 15.3566 9.53249 15.4279C9.6038 15.5705 9.62757 15.7369 9.55626 15.8796C9.50872 15.9746 9.48494 16.0935 9.4374 16.1886C9.36609 16.3788 9.271 16.5689 9.19968 16.7829C9.12837 16.9493 9.08082 17.1395 9.03328 17.3059C8.98574 17.4485 8.96196 17.6149 8.91442 17.7575C8.86688 17.9239 8.84311 18.0903 8.79556 18.2567C8.74802 18.4469 8.6767 18.6609 8.60539 18.851C8.5103 19.065 8.39144 19.3027 8.29636 19.5166C8.22504 19.7068 8.15372 19.9208 8.08241 20.1109C8.01109 20.3011 7.96355 20.5151 7.93978 20.729C7.93978 20.7765 7.93978 20.8003 7.93978 20.8479C7.93978 20.8716 7.96355 20.8954 7.98732 20.8954C8.20127 20.9667 8.41521 21.038 8.62916 21.0618C8.6767 21.0618 8.74802 21.0856 8.79556 21.0856C8.93819 21.0856 9.05705 21.0856 9.19968 21.0856C9.271 21.0856 9.34231 21.0856 9.4374 21.0618C9.62757 21.0143 9.81775 20.9905 10.0079 20.9429C10.1743 20.9192 10.3407 20.8716 10.5071 20.8716C10.626 20.8479 10.7211 20.8716 10.8399 20.8716C11.0063 20.8954 11.1727 20.9429 11.3629 20.9667C11.5293 21.0143 11.7195 21.0618 11.8859 21.0856C11.9572 21.1093 12.0285 21.1331 12.0998 21.1569C12.1474 21.1807 12.1474 21.1807 12.2187 21.1569C12.2425 20.9667 12.2187 20.7528 12.2187 20.5626C12.2187 20.3724 12.1949 20.1585 12.1949 19.9683C12.1949 19.7781 12.1712 19.5642 12.1236 19.374C12.1712 19.4215 12.1949 19.4691 12.1949 19.5166C12.2425 19.6593 12.29 19.8019 12.3376 19.9445C12.3851 20.0634 12.4089 20.1822 12.4564 20.3249C12.504 20.4675 12.5277 20.6101 12.5753 20.7765C12.599 20.8954 12.6228 20.9905 12.6466 21.1093C12.6704 21.2044 12.6704 21.2995 12.6941 21.4184V21.4422C12.6941 21.5135 12.6941 21.5372 12.6228 21.561C12.504 21.5848 12.4089 21.6323 12.29 21.6561C12.1712 21.6799 12.0523 21.7274 11.9334 21.7512C11.767 21.7987 11.6244 21.87 11.458 21.9176C11.2916 21.9651 11.1252 22.0364 10.9588 22.1078C10.7924 22.1791 10.626 22.2266 10.4834 22.2979C10.317 22.3693 10.1506 22.4168 9.98415 22.4881C9.84152 22.5357 9.72266 22.5832 9.58003 22.607C9.53249 22.607 9.50872 22.607 9.46117 22.607C9.29477 22.5594 9.15214 22.4881 8.98574 22.4168C8.6767 22.2504 8.39144 22.0602 8.10618 21.8225C8.08241 21.7987 8.03487 21.775 8.01109 21.7274C7.98732 21.7036 7.93978 21.7036 7.91601 21.7274C7.84469 21.775 7.7496 21.8225 7.67829 21.8938C7.48811 22.0364 7.29794 22.1791 7.13154 22.3217C6.91759 22.4881 6.72742 22.6545 6.53724 22.8685C6.39461 23.0111 6.25198 23.1775 6.10935 23.3201C6.06181 23.3677 6.01426 23.4152 5.96672 23.4628C5.94295 23.4865 5.94295 23.4865 5.8954 23.5103C5.8954 23.4628 5.87163 23.439 5.87163 23.4152C5.87163 23.3914 5.87163 23.3439 5.84786 23.3201C5.82409 23.225 5.80032 23.1062 5.77654 23.0111C5.75277 22.916 5.75277 22.8209 5.70523 22.7258C5.65769 22.5832 5.61014 22.4643 5.58637 22.3217C5.53883 22.1791 5.49128 22.0127 5.44374 21.87C5.3962 21.7274 5.32488 21.5848 5.27734 21.4422C5.25357 21.3708 5.22979 21.2995 5.20602 21.2282C5.22979 21.2044 5.25357 21.2282 5.25357 21.2282C5.34865 21.2995 5.44374 21.3946 5.53883 21.4659C5.58637 21.5135 5.63391 21.5372 5.68146 21.561C5.729 21.5848 5.75277 21.5848 5.80032 21.561C5.87163 21.4897 5.91918 21.4422 5.96672 21.3708C6.10935 21.2044 6.25198 21.038 6.37084 20.8716C6.4897 20.729 6.63233 20.5626 6.75119 20.42C6.91759 20.2298 7.08399 20.0396 7.2504 19.8257C7.44057 19.6117 7.63074 19.374 7.82092 19.1601C7.93978 19.0174 8.05864 18.8748 8.1775 18.7322C8.22504 18.6846 8.27258 18.6133 8.32013 18.542C8.36767 18.4944 8.39144 18.4231 8.41521 18.3756C8.46276 18.233 8.48653 18.1141 8.53407 17.9715C8.55785 17.9239 8.55785 17.8764 8.58162 17.8288C8.58162 17.8051 8.58162 17.8051 8.58162 17.7813C8.53407 17.7813 8.5103 17.8288 8.48653 17.8288C8.32013 17.9715 8.15372 18.0903 7.98732 18.233C7.82092 18.3518 7.65452 18.4469 7.48811 18.542C7.32171 18.6371 7.15531 18.7084 6.96513 18.8035C6.89382 18.8273 6.8225 18.851 6.75119 18.8748C6.6561 18.8986 6.56101 18.9223 6.44215 18.9461C6.3233 18.9699 6.22821 18.9223 6.13312 18.8748C6.10935 18.851 6.08558 18.8273 6.06181 18.8035C6.03803 18.7797 6.01426 18.7322 6.01426 18.7084C6.01426 18.6846 5.99049 18.6846 5.96672 18.6609C5.8954 18.7322 5.82409 18.8273 5.77654 18.9223C5.70523 19.0174 5.65769 19.0887 5.58637 19.1838C5.53883 19.2789 5.46751 19.3502 5.41997 19.4453C5.37242 19.5404 5.32488 19.6355 5.27734 19.7306C5.22979 19.8257 5.20602 19.9208 5.15848 20.0396C5.11093 20.1347 5.08716 20.2298 5.03962 20.3249C5.01585 20.3011 5.01585 20.3011 5.01585 20.2773C5.01585 20.2536 5.01585 20.2536 5.01585 20.2298C5.01585 20.0634 5.01585 19.9208 5.01585 19.7544C5.03962 19.5404 5.06339 19.3265 5.08716 19.1125C5.13471 18.9223 5.15848 18.7322 5.20602 18.542C5.25357 18.3043 5.32488 18.0666 5.41997 17.8288C5.44374 17.7575 5.49128 17.6862 5.53883 17.6149C5.5626 17.5674 5.5626 17.5436 5.5626 17.496C5.5626 17.4723 5.5626 17.4485 5.5626 17.4247C5.53883 17.3059 5.51506 17.1632 5.49128 17.0206C5.44374 16.7353 5.44374 16.4738 5.46751 16.1886C5.46751 15.9984 5.49128 15.832 5.51505 15.6418C5.53883 15.4517 5.58637 15.2377 5.63391 15.0475C5.65769 14.9287 5.70523 14.8098 5.75277 14.691C5.77654 14.6196 5.80032 14.5721 5.82409 14.5008C5.77655 14.477 5.729 14.477 5.68146 14.477C5.63391 14.477 5.58637 14.477 5.53883 14.477C5.51506 14.477 5.49128 14.477 5.46751 14.477C5.3962 14.477 5.34865 14.5246 5.32488 14.5721C5.25357 14.6672 5.20602 14.7623 5.15848 14.8811C5.11093 15 5.08716 15.1189 5.06339 15.2615C5.06339 15.2853 5.06339 15.3328 5.03962 15.3566C5.01585 15.309 5.01585 15.2615 4.99208 15.2139C4.99208 15.1902 4.99208 15.1664 4.9683 15.1189C4.94453 14.9525 4.92076 14.8098 4.89699 14.6434C4.89699 14.5721 4.87322 14.5246 4.87322 14.4532C4.84944 14.2868 4.82567 14.1204 4.8019 13.9303C4.8019 13.8114 4.8019 13.6925 4.8019 13.5975C4.8019 13.5499 4.82567 13.5261 4.87322 13.5024C4.89699 13.5024 4.94453 13.5024 4.9683 13.5024C5.01585 13.5024 5.06339 13.4786 5.11093 13.4311C5.22979 13.3122 5.32488 13.1696 5.44374 13.0269C5.5626 12.8605 5.68146 12.6941 5.80032 12.504C5.94295 12.29 6.03803 12.0761 6.13312 11.8383C6.15689 11.7433 6.20444 11.6482 6.22821 11.5531C6.25198 11.458 6.27575 11.3867 6.3233 11.2916C6.34707 11.2441 6.37084 11.2203 6.41838 11.1965C6.53724 11.149 6.67987 11.1014 6.79873 11.0539C6.91759 11.0063 7.03645 10.9588 7.15531 10.935C7.27417 10.8875 7.39303 10.8637 7.51189 10.8162C7.63074 10.7686 7.7496 10.7448 7.89223 10.6973C7.96355 10.6735 8.03487 10.6498 8.10618 10.626C8.24881 10.5784 8.41521 10.5309 8.55784 10.5071C8.65293 10.4834 8.74802 10.4596 8.81933 10.4358C8.98574 10.3883 9.15214 10.3407 9.31854 10.317C9.41363 10.2932 9.53249 10.2694 9.62757 10.2456C9.72266 10.2219 9.84152 10.1981 9.93661 10.1743C10.0079 10.1506 10.0555 10.1506 10.1268 10.1506C10.2932 10.1268 10.4358 10.103 10.6022 10.0792C10.7211 10.0555 10.8399 10.0555 10.935 10.0317C10.9588 10.0317 10.9826 10.0317 11.0063 10.0079L11.0301 9.98415C11.0063 9.98415 10.9826 9.96038 10.9826 9.96038C10.8399 9.96038 10.6973 9.93661 10.5547 9.93661C10.4596 9.93661 10.3645 9.93661 10.2932 9.93661C10.2219 9.93661 10.1743 9.96038 10.103 9.96038C9.96038 9.96038 9.84152 9.98415 9.69889 9.98415C9.50872 9.98415 9.31854 10.0079 9.12837 10.0317C8.98574 10.0555 8.84311 10.0555 8.70048 10.0792C8.58162 10.103 8.46276 10.1268 8.36767 10.1506C8.27258 10.1743 8.15372 10.1981 8.05864 10.2219C7.89223 10.2694 7.70206 10.2932 7.53566 10.3407C7.34548 10.3883 7.13154 10.4358 6.94136 10.4834C6.77496 10.5309 6.63233 10.5547 6.46593 10.626C6.34707 10.6735 6.20444 10.6973 6.08558 10.7448C6.01426 10.7686 5.94295 10.7924 5.87163 10.8162C5.82409 10.8399 5.80032 10.8399 5.75277 10.8637C5.729 10.8637 5.70523 10.8875 5.65769 10.935C5.5626 11.0539 5.46751 11.1727 5.37242 11.2916C5.15848 11.5769 4.99208 11.8859 4.8019 12.2187C4.70681 12.4089 4.58795 12.5753 4.44532 12.7417C4.39778 12.813 4.35024 12.8843 4.27892 12.9319C4.23138 12.9794 4.16006 13.0507 4.11252 13.0983C4.06498 13.1458 3.99366 13.1696 3.92235 13.1933C3.80349 13.1933 3.7084 13.2409 3.58954 13.2647C3.49445 13.2884 3.42314 13.3122 3.35182 13.336C3.30428 13.3597 3.25674 13.3597 3.20919 13.4073C3.18542 13.4548 3.20919 13.4786 3.20919 13.5024C3.25674 13.7163 3.32805 13.9303 3.37559 14.168C3.42314 14.4057 3.49445 14.6196 3.58954 14.8336C3.68463 15.0951 3.77971 15.3328 3.8748 15.5943C3.96989 15.8082 4.06498 15.9984 4.16006 16.2124C4.27892 16.4263 4.39778 16.6403 4.54041 16.8542C4.58796 16.9493 4.65927 17.0444 4.70681 17.1395C4.75436 17.2108 4.77813 17.3059 4.75436 17.4009C4.70681 17.6624 4.65927 17.9239 4.6355 18.1854C4.6355 18.2805 4.61173 18.3756 4.58795 18.4707C4.56418 18.4944 4.54041 18.4944 4.51664 18.4707C4.27892 18.3756 4.0412 18.3043 3.80349 18.2092C3.63708 18.1379 3.44691 18.0666 3.28051 17.9952C2.99525 17.8764 2.70998 17.7338 2.42472 17.6149C2.16323 17.496 1.92551 17.3534 1.6878 17.2108C1.52139 17.1157 1.35499 17.0206 1.18859 16.9255C0.950872 16.7829 0.713154 16.5927 0.475436 16.4025C0.356577 16.2837 0.213946 16.1648 0.118859 16.046C0.0475436 15.9509 0.0237718 15.8558 0 15.7607C0.0950872 15.4279 0.0950872 15.2615 0.0950872 15.1189C0.0950872 14.9525 0.118859 14.7861 0.142631 14.6196C0.166403 14.5008 0.190174 14.3819 0.213946 14.2631C0.237718 14.1204 0.285261 13.9778 0.332805 13.8352C0.40412 13.6212 0.475436 13.4073 0.546751 13.2171C0.641838 13.0032 0.713154 12.7654 0.832013 12.5515C0.9271 12.3376 1.04596 12.0998 1.16482 11.8859C1.30745 11.6244 1.45008 11.3629 1.59271 11.1014C1.78288 10.7686 1.97306 10.412 2.187 10.0555C2.25832 9.93661 2.32964 9.81775 2.40095 9.67512C2.59113 9.31854 2.75753 8.96196 2.90016 8.60539C2.99525 8.41521 3.06656 8.22504 3.16165 8.01109C3.23296 7.86846 3.28051 7.72583 3.32805 7.55943C3.39937 7.36925 3.47068 7.17908 3.542 6.98891C3.58954 6.87005 3.61331 6.77496 3.66086 6.6561C3.66086 6.63233 3.68463 6.60856 3.68463 6.58478C3.73217 6.44215 3.77971 6.29952 3.82726 6.15689C3.92235 5.91917 3.99366 5.70523 4.08875 5.46751C4.13629 5.37242 4.16006 5.27734 4.18384 5.18225C4.23138 5.03962 4.27892 4.92076 4.32647 4.77813C4.37401 4.65927 4.39778 4.54041 4.44532 4.44532C4.49287 4.30269 4.54041 4.16006 4.58795 4.0412C4.6355 3.89857 4.70681 3.75594 4.75436 3.61331C4.84944 3.39937 4.94453 3.18542 5.06339 2.99525C5.18225 2.75753 5.32488 2.54358 5.46751 2.32964C5.5626 2.21078 5.68146 2.06815 5.80032 1.92551C5.94295 1.75911 6.10935 1.59271 6.27575 1.45008C6.51347 1.23613 6.77496 1.02219 7.03645 0.855784C7.2504 0.713154 7.48811 0.570523 7.72583 0.451664C7.86846 0.380349 8.03487 0.309033 8.20127 0.26149C8.32013 0.213946 8.46276 0.190174 8.58162 0.142631C8.70048 0.0950871 8.81933 0.0950871 8.93819 0.0713154C9.05705 0.0475436 9.17591 0.0475436 9.29477 0.0237718C9.29477 0.0237718 9.55626 0 9.79398 0C10.0792 0 10.3883 0.0237718 10.3883 0.0237718C10.5547 0.0475436 10.7211 0.0475436 10.8875 0.0950871C11.0063 0.118859 11.149 0.118859 11.2678 0.166403C11.3867 0.190174 11.5055 0.213946 11.6244 0.237718C11.6957 0.26149 11.767 0.26149 11.8384 0.285261C11.9334 0.309033 12.0523 0.332805 12.1474 0.356577C12.2425 0.380349 12.3138 0.40412 12.4089 0.427892C12.5277 0.475436 12.6466 0.499207 12.7892 0.546751C12.9081 0.594295 13.0032 0.618066 13.122 0.66561C13.1696 0.66561 13.2647 0.689382 13.336 0.713154C13.4548 0.760697 13.5737 0.808241 13.6926 0.855784C13.8352 0.903328 13.9778 0.974643 14.0967 1.02219C14.2155 1.06973 14.3344 1.11727 14.4295 1.16482C14.691 1.28368 14.9525 1.40254 15.1902 1.54517C15.3566 1.61648 15.4992 1.71157 15.6656 1.78288C16.0222 1.97306 16.3788 2.187 16.7353 2.40095C17.0206 2.59112 17.3059 2.75753 17.6149 2.9477C17.8051 3.06656 17.9952 3.20919 18.1854 3.32805C18.4231 3.49445 18.6371 3.66086 18.8748 3.82726C19.0412 3.94612 19.2076 4.06498 19.374 4.18383C19.5166 4.30269 19.6593 4.39778 19.8257 4.51664C19.9208 4.58795 20.0158 4.65927 20.1109 4.73059C20.2298 4.82567 20.3487 4.92076 20.4675 5.01585C20.5864 5.11093 20.7052 5.20602 20.8241 5.27734C20.8716 5.32488 20.9429 5.37242 20.9905 5.41997C21.1807 5.5626 21.3708 5.729 21.561 5.87163C21.7036 5.99049 21.8463 6.10935 21.9889 6.20444C22.0602 6.25198 22.1078 6.29952 22.1553 6.34707C22.3217 6.46593 22.4643 6.60856 22.6307 6.72742C22.7496 6.8225 22.8922 6.94136 23.0111 7.03645C23.1062 7.10776 23.2013 7.20285 23.2964 7.27417C23.3914 7.34548 23.4628 7.4168 23.5578 7.48811C23.7005 7.60697 23.8193 7.70206 23.962 7.82092C24.0333 7.86846 24.0808 7.91601 24.1521 7.96355C24.271 8.05864 24.4136 8.15372 24.5325 8.27258C24.6513 8.36767 24.7464 8.43898 24.8653 8.53407C24.9604 8.60539 25.0792 8.6767 25.1743 8.74802C25.2932 8.8431 25.412 8.91442 25.5547 9.00951C25.6973 9.10459 25.8399 9.22345 26.0063 9.31854C26.1727 9.4374 26.3629 9.55626 26.5293 9.67512C26.6957 9.79398 26.8859 9.91284 27.0523 10.0317C27.2425 10.1743 27.4564 10.2932 27.6466 10.4358C27.7892 10.5309 27.9319 10.626 28.0507 10.7448C28.2647 10.935 28.4786 11.1252 28.6688 11.3629C28.7401 11.458 28.8114 11.5769 28.9065 11.6719C28.954 11.7195 28.9778 11.767 29.0254 11.8383C29.0967 11.9572 29.1918 12.0523 29.2631 12.1712C29.3582 12.29 29.4532 12.4326 29.5483 12.5515C29.6196 12.6704 29.691 12.7654 29.7623 12.8843C29.8098 12.9794 29.8811 13.0507 29.9287 13.1458C29.9525 13.1933 29.9762 13.2171 30 13.2884C29.9762 13.2647 29.9525 13.2647 29.9525 13.2647C29.9049 13.2409 29.8811 13.1933 29.8574 13.1458C29.7623 13.0032 29.6197 12.9081 29.5246 12.7654C29.3582 12.599 29.2155 12.4326 29.0491 12.2662C29.0016 12.2187 28.9303 12.1712 28.8827 12.1236C28.8352 12.0761 28.7876 12.0285 28.7401 11.981C28.645 11.8859 28.5261 11.7908 28.4073 11.6957C28.3122 11.6244 28.2171 11.5293 28.122 11.458C28.0745 11.4105 28.0032 11.3629 27.9319 11.3154C27.8368 11.2441 27.7179 11.149 27.6228 11.0777C27.504 10.9826 27.3851 10.8875 27.2662 10.8162C27.0998 10.6973 26.9334 10.5784 26.767 10.4596C26.6244 10.3645 26.4818 10.2694 26.3629 10.1743C26.2678 10.103 26.149 10.0317 26.0539 9.96038C25.935 9.88906 25.8162 9.79398 25.6973 9.72266C25.5547 9.62757 25.412 9.53249 25.2694 9.4374C25.1506 9.36608 25.0317 9.271 24.8891 9.19968C24.7464 9.10459 24.6276 9.03328 24.4849 8.93819C24.3661 8.86688 24.2472 8.77179 24.1046 8.6767C23.9857 8.60539 23.8906 8.53407 23.7718 8.43898C23.6767 8.36767 23.5578 8.29635 23.4628 8.20127C23.3677 8.12995 23.2726 8.05864 23.1537 7.98732C23.0349 7.916 22.9398 7.82092 22.8209 7.7496C22.6783 7.63074 22.5357 7.53566 22.3693 7.4168C22.3217 7.36925 22.2742 7.32171 22.2029 7.29794C22.1078 7.2504 22.0364 7.15531 21.9414 7.08399C21.8463 7.03645 21.775 6.96513 21.6799 6.89382C21.4897 6.75119 21.3233 6.60856 21.1331 6.4897C20.9429 6.34707 20.7765 6.22821 20.5864 6.08558C20.4675 6.01426 20.3724 5.91917 20.2536 5.82409C20.1347 5.729 19.9921 5.63391 19.8732 5.53883C19.7306 5.44374 19.588 5.32488 19.4453 5.22979C19.2551 5.08716 19.0412 4.94453 18.851 4.82567C18.6846 4.70681 18.542 4.61173 18.3756 4.49287C18.0903 4.30269 17.8051 4.11252 17.5198 3.92234C17.2583 3.75594 17.0206 3.58954 16.7591 3.42314C16.5452 3.28051 16.3312 3.16165 16.0935 3.01902C15.9271 2.92393 15.7369 2.80507 15.5705 2.70998C15.4517 2.63867 15.309 2.56735 15.1664 2.49604C14.9525 2.37718 14.7385 2.28209 14.5246 2.187C14.3582 2.11569 14.2155 2.0206 14.0491 1.97306C13.9303 1.92551 13.8352 1.87797 13.7163 1.83043C13.5024 1.75911 13.2884 1.66403 13.0745 1.59271C12.9556 1.54517 12.8368 1.49762 12.7179 1.47385C12.5753 1.42631 12.4326 1.37876 12.29 1.35499C12.1949 1.33122 12.0761 1.30745 11.981 1.28368C11.9572 1.28368 11.9097 1.2599 11.8859 1.28368C11.8859 1.33122 11.9097 1.33122 11.9334 1.35499C11.981 1.37876 12.0285 1.42631 12.0998 1.45008C12.1236 1.47385 12.1712 1.49762 12.1949 1.52139C12.3138 1.64025 12.4564 1.75911 12.5753 1.90174C12.7655 2.09192 12.9556 2.30586 13.0745 2.56735C13.1458 2.68621 13.1933 2.82884 13.2647 2.97147C13.3835 3.23296 13.5024 3.51822 13.5975 3.77971C13.6926 4.0412 13.7876 4.30269 13.8827 4.56418C13.954 4.77813 14.0491 4.99207 14.1204 5.18225C14.1918 5.34865 14.2631 5.53883 14.3344 5.70523C14.4295 5.99049 14.5483 6.27575 14.6434 6.53724C14.7385 6.77496 14.8336 7.01268 14.9287 7.25039C15.0713 7.5832 15.2615 7.916 15.4517 8.22504C15.4754 8.27258 15.523 8.32013 15.5705 8.39144C15.6418 8.48653 15.6894 8.58162 15.7607 8.65293C15.7845 8.70047 15.832 8.74802 15.8558 8.79556C15.8796 8.8431 15.9271 8.86688 15.9746 8.86688C16.1173 8.91442 16.2599 8.93819 16.4263 8.98573C16.5689 9.03328 16.6878 9.05705 16.8304 9.10459C16.878 9.12837 16.9255 9.12837 16.9731 9.15214C17.1395 9.19968 17.2821 9.24722 17.4485 9.29477C17.5436 9.31854 17.6624 9.36608 17.7575 9.38986C17.8764 9.4374 17.9715 9.46117 18.0903 9.50871C18.233 9.55626 18.3756 9.6038 18.4945 9.65135C18.6133 9.69889 18.7559 9.74643 18.8748 9.79398C19.0412 9.86529 19.2314 9.93661 19.3978 10.0079C19.4691 10.0317 19.5404 10.0555 19.6117 10.103C19.7544 10.1743 19.897 10.2219 20.0396 10.2932C20.2773 10.412 20.5388 10.5071 20.7765 10.626C20.8954 10.6735 20.9905 10.7211 21.0856 10.7924C21.2758 10.8875 21.4422 10.9588 21.6323 11.0539C21.7274 11.1014 21.8225 11.149 21.9176 11.1965C22.1553 11.3154 22.4168 11.4342 22.6545 11.5769C22.7971 11.6482 22.9636 11.7433 23.1062 11.8146C23.3201 11.9097 23.5103 12.0285 23.7242 12.1236C23.8669 12.1949 24.0333 12.29 24.1759 12.3613C24.2235 12.3851 24.2472 12.4089 24.2948 12.4326C24.2472 12.4326 24.2472 12.4326 24.2235 12.4326C24.0571 12.4089 23.9144 12.3613 23.748 12.3376C23.6767 12.3376 23.6292 12.3138 23.5578 12.29C23.439 12.2662 23.2964 12.2425 23.1775 12.2187C23.0349 12.1949 22.916 12.1712 22.7734 12.1474C22.6783 12.1236 22.607 12.1236 22.5119 12.0998C22.393 12.0761 22.2742 12.0523 22.1315 12.0285C22.1078 12.0285 22.084 12.0285 22.0602 12.0285C22.0602 12.0523 22.0602 12.0523 22.0602 12.0761C22.0602 12.0998 22.084 12.0998 22.084 12.0998C22.2029 12.1474 22.3455 12.1949 22.4643 12.2662C22.6307 12.3376 22.7971 12.4326 22.9635 12.504C23.1775 12.599 23.3677 12.7179 23.5816 12.813C23.8431 12.9556 24.1284 13.0983 24.3899 13.2647C24.5325 13.336 24.6513 13.4073 24.794 13.4786C24.9366 13.5737 25.0792 13.645 25.2219 13.7401C25.3645 13.8352 25.4834 13.9065 25.626 14.0016C25.6735 14.0254 25.7211 14.0729 25.7924 14.0967C25.9588 14.2155 26.149 14.3344 26.3154 14.4295C26.458 14.5246 26.6244 14.6196 26.767 14.7147C26.8621 14.7623 26.9572 14.7861 27.0523 14.8098C27.2425 14.8336 27.4089 14.8574 27.599 14.8336C27.7417 14.8336 27.8605 14.8098 28.0032 14.8098C28.0983 14.8098 28.1933 14.8098 28.2884 14.8098C28.3597 14.8098 28.4073 14.8098 28.4786 14.7861C28.7163 14.7623 28.954 14.7385 29.1918 14.7147H29.2155C29.3344 14.691 29.477 14.691 29.5959 14.6672H29.6196C29.6196 14.6672 29.6196 14.691 29.5959 14.691C29.477 14.8098 29.3344 14.9287 29.2155 15.0475C29.0491 15.1902 28.8827 15.3566 28.6926 15.4992C28.6212 15.5467 28.5499 15.6181 28.4548 15.6894C28.3835 15.7607 28.2884 15.8082 28.2171 15.8796C28.0983 15.9746 27.9556 16.0935 27.8368 16.2124C27.7892 16.2599 27.7179 16.3312 27.6704 16.3788C27.5753 16.4501 27.504 16.5452 27.4326 16.6165C27.3613 16.6878 27.3138 16.7591 27.2425 16.8067C27.0761 16.9968 26.8859 17.1632 26.7195 17.3534C26.6482 17.4247 26.5769 17.496 26.4818 17.5674C26.4105 17.6387 26.3391 17.6862 26.2441 17.7575C26.1727 17.8051 26.1252 17.8526 26.0539 17.9002C25.8637 18.0428 25.6735 18.1854 25.4596 18.3043C25.2456 18.4469 25.0079 18.5658 24.7702 18.6846C24.58 18.7797 24.3899 18.851 24.1997 18.9223C24.0808 18.9699 23.9857 19.0174 23.8669 19.0412C23.7956 19.065 23.7005 19.0887 23.6054 19.0887C23.4628 19.1125 23.3201 19.1125 23.1537 19.1363C23.1062 19.1363 23.0824 19.1363 23.0349 19.1363C22.916 19.1363 22.7734 19.1601 22.6545 19.1601C22.6307 19.1601 22.5832 19.1601 22.5594 19.1601C22.2504 19.1838 21.9414 19.1838 21.6323 19.1838C21.5135 19.1838 21.5135 19.1838 21.5135 19.065C21.4897 18.8748 21.4659 18.6609 21.4659 18.4707C21.4659 18.3756 21.4659 18.2567 21.4422 18.1616C21.5372 18.1616 21.5372 18.0666 21.5372 17.9477ZM10.3407 1.35499C10.1743 1.35499 10.0079 1.42631 9.86529 1.49762C9.62757 1.61648 9.41363 1.71157 9.17591 1.83043C9.00951 1.90174 8.86688 1.97306 8.70048 2.06815C8.5103 2.16323 8.29636 2.25832 8.10618 2.35341C7.93978 2.42472 7.79715 2.49604 7.63074 2.59112C7.51189 2.63867 7.4168 2.68621 7.29794 2.75753C7.13154 2.82884 6.96513 2.92393 6.79873 2.99525C6.53724 3.1141 6.29952 3.25673 6.03803 3.35182C5.91918 3.39937 5.82409 3.49445 5.75277 3.58954C5.70523 3.66086 5.65769 3.73217 5.63391 3.82726C5.61014 3.92234 5.61014 4.01743 5.61014 4.11252C5.61014 4.16006 5.61014 4.18383 5.63391 4.23138C5.68146 4.37401 5.75277 4.51664 5.82409 4.65927C5.84786 4.68304 5.84786 4.73059 5.87163 4.75436C5.91918 4.84944 5.94295 4.94453 5.99049 5.03962C6.03803 5.15848 6.08558 5.27734 6.15689 5.3962C6.20444 5.51505 6.25198 5.61014 6.29952 5.729C6.34707 5.84786 6.39461 5.94295 6.44215 6.06181C6.51347 6.22821 6.58479 6.39461 6.6561 6.56101C6.70364 6.67987 6.75119 6.79873 6.79873 6.91759C6.8225 6.98891 6.84628 7.03645 6.87005 7.10776C6.91759 7.22662 6.96513 7.34548 7.01268 7.46434C7.06022 7.5832 7.10777 7.70206 7.15531 7.82092C7.20285 7.93978 7.27417 8.08241 7.32171 8.20127C7.36925 8.32013 7.48811 8.41521 7.5832 8.48653C7.5832 8.48653 7.60697 8.48653 7.60697 8.5103C7.79715 8.60539 7.98732 8.60539 8.1775 8.53407C8.24881 8.5103 8.32013 8.46276 8.39144 8.43898C8.48653 8.39144 8.58162 8.36767 8.65293 8.32013C8.77179 8.24881 8.89065 8.20127 9.00951 8.12995C9.00951 8.12995 9.03328 8.12995 9.03328 8.10618C9.12837 8.08241 9.22345 8.03486 9.31854 7.98732C9.58003 7.86846 9.84152 7.72583 10.103 7.60697C10.317 7.51188 10.5309 7.39303 10.7448 7.29794C10.8637 7.2504 10.9588 7.17908 11.0777 7.13154C11.1965 7.08399 11.2916 7.03645 11.4105 6.96513C11.6244 6.87005 11.8384 6.75119 12.0523 6.6561C12.1474 6.60856 12.2425 6.56101 12.3376 6.4897C12.3851 6.44215 12.4564 6.39461 12.504 6.34707C12.599 6.22821 12.6466 6.08558 12.6466 5.91917C12.6466 5.8954 12.6466 5.87163 12.6466 5.82409C12.6466 5.80032 12.6466 5.75277 12.6228 5.729C12.5753 5.58637 12.5277 5.46751 12.4802 5.34865C12.4326 5.22979 12.3851 5.11093 12.3138 4.99207C12.2662 4.87322 12.2187 4.75436 12.1712 4.65927C12.1236 4.54041 12.0761 4.44532 12.0285 4.32647C11.981 4.20761 11.9334 4.11252 11.8859 3.99366C11.8146 3.85103 11.767 3.68463 11.6957 3.542C11.6719 3.51822 11.6719 3.47068 11.6482 3.44691C11.6244 3.37559 11.6006 3.30428 11.5531 3.23296C11.5055 3.1141 11.458 2.99525 11.3867 2.87639C11.3154 2.70998 11.2441 2.54358 11.1727 2.37718C11.1252 2.28209 11.1014 2.187 11.0539 2.11569C10.9826 1.97306 10.935 1.80666 10.8399 1.6878C10.7448 1.59271 10.626 1.52139 10.4834 1.47385C10.4358 1.35499 10.3883 1.35499 10.3407 1.35499ZM6.8225 11.3154C6.75119 11.4342 6.70364 11.5769 6.6561 11.6957C6.58479 11.8859 6.51347 12.0761 6.39461 12.2425C6.34707 12.3138 6.3233 12.3851 6.27575 12.4564C6.25198 12.5277 6.20444 12.599 6.18067 12.6466C6.06181 12.8605 5.94295 13.0745 5.82409 13.2647C5.77655 13.3597 5.77654 13.3597 5.87163 13.3835C6.06181 13.4073 6.22821 13.4548 6.39461 13.5024C6.51347 13.5261 6.63233 13.5499 6.75119 13.5737C6.84628 13.5975 6.94136 13.6212 7.03645 13.645C7.17908 13.6925 7.32171 13.7163 7.46434 13.7639C7.63074 13.8114 7.79715 13.859 7.96355 13.9303C8.01109 13.954 8.05864 13.954 8.08241 13.9778C8.12995 14.0016 8.1775 13.9778 8.20127 13.954C8.27258 13.8827 8.36767 13.8114 8.43898 13.7401C8.60539 13.5737 8.77179 13.4311 8.93819 13.2884C9.08082 13.1696 9.24723 13.0507 9.38986 12.9319C9.55626 12.813 9.74643 12.6941 9.93661 12.5753C10.2219 12.3851 10.5071 12.2425 10.7924 12.0761C10.935 12.0048 11.0777 11.9334 11.2203 11.8383C11.3867 11.7433 11.5531 11.6719 11.7433 11.6006C11.8621 11.5531 11.9572 11.5055 12.0761 11.4342C12.2662 11.3391 12.4564 11.2678 12.6466 11.1727C12.8368 11.1014 13.0269 11.0301 13.2171 10.9588C13.3597 10.9113 13.5024 10.8399 13.645 10.7924C13.8114 10.7448 14.0016 10.6735 14.168 10.626C14.3106 10.5784 14.4532 10.5309 14.5959 10.5071C14.6197 10.5071 14.6434 10.4834 14.6672 10.4834V10.4596C14.6672 10.4596 14.6672 10.4596 14.6672 10.4358C14.6672 10.4358 14.6434 10.4358 14.6197 10.4358C14.5246 10.4358 14.4295 10.412 14.3344 10.412C14.2155 10.412 14.0729 10.3883 13.954 10.3883C13.859 10.3883 13.7639 10.3883 13.6688 10.3883C13.5499 10.3883 13.4548 10.3645 13.336 10.3645C13.0983 10.3645 12.8605 10.3407 12.599 10.3407C12.3613 10.3407 12.0998 10.3407 11.8621 10.3645C11.7908 10.3645 11.7433 10.3645 11.6719 10.3645C11.5293 10.3645 11.4105 10.3883 11.2678 10.3883C11.1727 10.3883 11.0539 10.412 10.9588 10.412C10.7924 10.4358 10.626 10.4358 10.4596 10.4596C10.317 10.4834 10.1981 10.4834 10.0555 10.5071C9.91284 10.5309 9.77021 10.5547 9.65135 10.5547C9.62757 10.5547 9.6038 10.5547 9.6038 10.5547C9.46117 10.5784 9.34231 10.6022 9.19968 10.626C9.1046 10.6498 9.00951 10.6498 8.89065 10.6735C8.74802 10.6973 8.62916 10.7211 8.5103 10.7448C8.32013 10.7924 8.12995 10.8162 7.96355 10.8637C7.89223 10.8875 7.79715 10.9113 7.72583 10.935C7.55943 10.9826 7.39303 11.0301 7.2504 11.0777C7.20285 11.1014 7.15531 11.1252 7.08399 11.1252C7.01268 11.2203 6.91759 11.2678 6.8225 11.3154ZM5.99049 5.41997C5.96672 5.44374 5.96672 5.46751 5.94295 5.49128C5.84786 5.729 5.75277 5.96672 5.65769 6.22821C5.65769 6.25198 5.63391 6.29952 5.63391 6.3233C5.63391 6.34707 5.63391 6.39461 5.63391 6.41838C5.63391 6.56101 5.68146 6.70364 5.80032 6.8225C5.84786 6.87005 5.87163 6.89382 5.94295 6.91759C5.99049 6.94136 6.03803 6.94136 6.08558 6.96513C6.27575 7.03645 6.44215 7.08399 6.63233 7.15531C6.6561 7.15531 6.70364 7.17908 6.75119 7.17908C6.75119 7.15531 6.75119 7.15531 6.75119 7.13154C6.75119 7.10776 6.72742 7.08399 6.72742 7.06022C6.6561 6.91759 6.60856 6.77496 6.53724 6.63233C6.4897 6.51347 6.44215 6.39461 6.39461 6.27575C6.3233 6.10935 6.25198 5.94295 6.18067 5.77654C6.13312 5.68146 6.08558 5.5626 6.03803 5.46751C6.03803 5.41997 6.01426 5.3962 5.99049 5.41997ZM12.6228 3.51822C12.6228 3.44691 12.6228 3.37559 12.5753 3.30428C12.5277 3.16165 12.4326 3.04279 12.29 2.9477C12.2425 2.92393 12.2187 2.92393 12.1712 2.90016C12.0523 2.85261 11.9334 2.80507 11.8146 2.7813C11.7433 2.75753 11.6957 2.73376 11.6244 2.70998C11.6006 2.70998 11.5531 2.66244 11.5293 2.70998C11.5055 2.73376 11.5293 2.7813 11.5531 2.80507C11.6482 3.01902 11.7433 3.20919 11.8146 3.42314C11.9334 3.73217 12.0761 4.01743 12.1949 4.32647C12.2187 4.35024 12.2187 4.39778 12.2425 4.42155C12.2425 4.42155 12.2662 4.44532 12.29 4.44532C12.3138 4.44532 12.3138 4.44532 12.3138 4.42155C12.3138 4.39778 12.3376 4.35024 12.3376 4.32647C12.4089 4.11252 12.4802 3.92234 12.5753 3.7084C12.599 3.66086 12.6228 3.58954 12.6228 3.51822ZM7.06022 2.70998C7.10776 2.70998 7.10777 2.68621 7.13154 2.68621C7.34548 2.56735 7.5832 2.47227 7.79715 2.35341C8.08241 2.21078 8.3439 2.06815 8.62916 1.92551C8.6767 1.90174 8.74802 1.87797 8.79556 1.83043C8.81933 1.80666 8.81933 1.78288 8.79556 1.75911C8.77179 1.75911 8.74802 1.73534 8.72425 1.73534C8.65293 1.71157 8.53407 1.66403 8.41521 1.64025C8.36767 1.61648 8.32013 1.61648 8.29636 1.59271C8.15372 1.54517 8.01109 1.52139 7.84469 1.56894C7.77338 1.59271 7.70206 1.61648 7.63074 1.66403C7.51189 1.75911 7.4168 1.87797 7.34548 1.99683C7.32171 2.04437 7.29794 2.11569 7.27417 2.16323C7.20285 2.32964 7.13154 2.47227 7.08399 2.63867C7.06022 2.66244 7.08399 2.66244 7.06022 2.70998ZM9.41363 8.05864C9.4374 8.08241 9.46117 8.08241 9.48494 8.10618C9.55626 8.12995 9.62758 8.15372 9.69889 8.1775C9.81775 8.22504 9.91284 8.24881 10.0317 8.29635C10.0555 8.29635 10.103 8.32013 10.1268 8.32013C10.2219 8.32013 10.317 8.3439 10.3883 8.32013C10.5309 8.29635 10.6735 8.20127 10.7924 8.10618C10.8162 8.08241 10.8399 8.05864 10.8637 8.01109C10.8875 7.96355 10.9113 7.916 10.935 7.86846C11.0063 7.67829 11.0777 7.51188 11.149 7.32171C11.1727 7.27417 11.1965 7.25039 11.1727 7.20285C11.149 7.17908 11.1252 7.17908 11.1014 7.20285C11.0301 7.22662 10.9588 7.27417 10.8875 7.29794C10.6735 7.4168 10.4358 7.51188 10.2219 7.63074C10.0079 7.72583 9.79398 7.84469 9.6038 7.93978C9.55626 7.98732 9.48494 8.03486 9.41363 8.05864Z" fill="#5723B0"/>
<path d="M6.96512 33.6135C6.96512 33.5897 6.96512 33.5659 6.96512 33.5422C6.98889 33.4233 7.01266 33.3045 7.01266 33.1856C7.01266 33.1143 7.03643 33.043 7.03643 32.9716C7.03643 32.8766 7.08397 32.7815 7.10775 32.7102C7.17906 32.5438 7.22661 32.3774 7.25038 32.1872C7.25038 32.1634 7.27415 32.1396 7.25038 32.1159C7.22661 32.0921 7.20283 32.1159 7.17906 32.1159C7.08397 32.1634 6.98889 32.1872 6.8938 32.211C6.87003 32.211 6.84626 32.2347 6.82248 32.2347C6.79871 32.2347 6.77494 32.2347 6.77494 32.1872C6.77494 32.1634 6.77494 32.1396 6.77494 32.1159C6.77494 31.9257 6.77494 31.7355 6.77494 31.5216C6.77494 31.3076 6.75117 31.0937 6.70363 30.9035C6.67985 30.7609 6.65608 30.642 6.63231 30.4994C6.58477 30.2617 6.53722 30.0002 6.51345 29.7625C6.48968 29.5485 6.46591 29.3583 6.44214 29.1444C6.44214 29.0018 6.41836 28.8829 6.41836 28.7403C6.41836 28.7165 6.41836 28.6927 6.41836 28.6452C6.41836 28.5263 6.41836 28.4075 6.41836 28.2886C6.41836 28.146 6.41836 28.0033 6.44214 27.8607C6.46591 27.6468 6.46591 27.4328 6.48968 27.2189C6.48968 27.1238 6.46591 27.0525 6.46591 26.9812C6.44214 26.8385 6.39459 26.6959 6.37082 26.5533C6.34705 26.3631 6.29951 26.1729 6.27573 25.9827C6.27573 25.9114 6.25196 25.8401 6.22819 25.7688C6.20442 25.7688 6.18065 25.745 6.15687 25.745C6.08556 25.745 6.03802 25.745 5.9667 25.745C5.8003 25.745 5.61012 25.7213 5.44372 25.7213C5.41995 25.7213 5.39618 25.7213 5.37241 25.6975C5.37241 25.6737 5.37241 25.6737 5.37241 25.6737C5.51504 25.436 5.61012 25.1983 5.75275 24.9606C5.9667 24.5327 6.22819 24.1048 6.51345 23.7244C6.67985 23.5105 6.87003 23.2728 7.0602 23.0826C7.17906 22.9637 7.32169 22.8211 7.44055 22.7022C7.53564 22.6071 7.63073 22.5121 7.74958 22.4407C7.77336 22.417 7.79713 22.417 7.8209 22.3932C7.91599 22.4407 7.9873 22.4883 8.05862 22.5358C8.17748 22.6071 8.32011 22.6785 8.46274 22.7498C8.60537 22.8211 8.77177 22.8924 8.9144 22.9637C8.98572 22.9875 9.03326 23.0113 9.10458 23.035C9.12835 23.035 9.15212 23.0588 9.19966 23.0826C9.17589 23.1064 9.15212 23.1301 9.15212 23.1539C9.12835 23.1777 9.10458 23.2014 9.10458 23.2252C9.08081 23.249 9.10458 23.2728 9.12835 23.2728C9.15212 23.2728 9.17589 23.2728 9.17589 23.2728C9.24721 23.2728 9.31852 23.2728 9.41361 23.249C9.48493 23.2252 9.55624 23.2252 9.62756 23.2014C9.77019 23.1777 9.91282 23.1064 10.0554 23.0588C10.1505 23.0113 10.2694 22.9875 10.3645 22.94C10.4596 22.9162 10.5309 22.8686 10.626 22.8449C10.7211 22.7973 10.8161 22.7736 10.9112 22.726C11.0539 22.6785 11.1965 22.6071 11.3154 22.5596C11.4104 22.5121 11.5293 22.4883 11.6244 22.4407C11.7432 22.3932 11.8383 22.3694 11.9572 22.3219C12.0285 22.2981 12.0998 22.2743 12.1711 22.2506C12.2425 22.2268 12.3375 22.203 12.4089 22.1793C12.5277 22.1555 12.6228 22.1317 12.7417 22.1079C12.7417 22.1079 12.8367 22.1079 12.9318 22.1079C12.9556 22.1079 12.9794 22.1079 13.0031 22.1317C13.1458 22.3219 13.3122 22.5121 13.4548 22.6785C13.645 22.9162 13.8352 23.1539 14.0491 23.3678C14.1917 23.5105 14.3581 23.6531 14.5008 23.772C14.5245 23.7957 14.5483 23.7957 14.5483 23.8433C14.4295 23.9146 14.3106 23.9859 14.1917 24.0335C14.1917 24.0572 14.2155 24.081 14.2155 24.1048C14.3819 24.2712 14.5245 24.4376 14.6909 24.6277C14.786 24.7466 14.8811 24.8655 14.9762 24.9606C15.0475 25.0556 15.1426 25.1507 15.2139 25.2458C15.2615 25.2934 15.2852 25.3171 15.3566 25.3409C15.4279 25.3647 15.4992 25.4122 15.5705 25.436C15.6894 25.4835 15.8082 25.5073 15.9033 25.5549C15.9271 25.5549 15.9509 25.5548 15.9746 25.5786C15.9509 25.6024 15.9033 25.6262 15.8795 25.6262C15.7369 25.6737 15.5705 25.7213 15.4279 25.745C15.2852 25.7688 15.1426 25.7926 14.9762 25.8163C14.786 25.8401 14.6196 25.8639 14.4295 25.8163C14.3344 25.7926 14.2631 25.7688 14.168 25.745C14.1204 25.7213 14.0491 25.6975 14.0016 25.6737C13.8827 25.6262 13.7638 25.5786 13.645 25.5073C13.431 25.4122 13.2409 25.2934 13.0507 25.1745C12.7892 25.0319 12.5277 24.8892 12.2425 24.7466C12.1474 24.6991 12.0285 24.6515 11.9334 24.6277C11.8859 24.604 11.8383 24.5802 11.7908 24.5802C11.6482 24.5327 11.5055 24.4851 11.3391 24.4613C11.3154 24.4613 11.2678 24.4613 11.244 24.4613C11.1014 24.4613 10.9588 24.4613 10.8161 24.4613C10.7448 24.4613 10.6973 24.4613 10.626 24.4851C10.5309 24.4851 10.4596 24.5089 10.3645 24.5089C10.2932 24.5089 10.2219 24.5327 10.1743 24.5327C10.1505 24.5327 10.1505 24.5327 10.1268 24.5327C9.93659 24.5327 9.74641 24.5564 9.55624 24.5564C9.38984 24.5564 9.24721 24.5327 9.0808 24.5327C8.96195 24.5327 8.86686 24.5327 8.748 24.5327C8.67668 24.5327 8.60537 24.5564 8.53405 24.5802C8.36765 24.6515 8.24879 24.7704 8.12993 24.913C7.9873 25.1032 7.89222 25.2934 7.79713 25.5073C7.74958 25.6024 7.70204 25.7213 7.67827 25.8163C7.67827 25.8639 7.6545 25.8877 7.63073 25.9114C7.60695 25.9352 7.60695 25.9352 7.60695 25.959C7.63073 25.9827 7.6545 25.9827 7.67827 25.9827C7.72581 25.959 7.74958 25.9352 7.79713 25.9352C7.93976 25.8639 8.10616 25.7926 8.24879 25.7213C8.32011 25.6975 8.39142 25.6737 8.43897 25.6262C8.48651 25.6024 8.55783 25.5786 8.62914 25.6024C8.77177 25.6262 8.9144 25.6262 9.05703 25.6499C9.17589 25.6737 9.31852 25.6737 9.43738 25.6737C9.77019 25.6737 10.1268 25.6737 10.4596 25.6737C10.6022 25.6737 10.7686 25.6737 10.9112 25.6499C11.0776 25.6499 11.2203 25.6262 11.3867 25.6024C11.5531 25.6024 11.7195 25.5786 11.8621 25.5786C11.9334 25.5786 11.981 25.6024 12.0523 25.6024C12.1949 25.6262 12.3138 25.6737 12.4564 25.7213C12.599 25.7688 12.7417 25.7926 12.8843 25.8401C12.9794 25.8639 13.0745 25.9114 13.1933 25.9352C13.1933 25.959 13.1696 25.959 13.1696 25.959C13.0507 26.0065 12.9081 26.0303 12.7654 26.0778C12.599 26.1254 12.4326 26.1491 12.2662 26.1967C12.1711 26.2205 12.0998 26.2442 12.0047 26.2442C11.8621 26.268 11.7195 26.2918 11.5531 26.3393C11.5055 26.3393 11.4342 26.3393 11.3867 26.3631C11.244 26.3869 11.1252 26.4106 10.9825 26.4344C10.8637 26.4582 10.7211 26.4819 10.6022 26.5057C10.5784 26.5057 10.5547 26.5057 10.5309 26.5295C10.5071 26.5533 10.5071 26.6008 10.5309 26.6246C10.5784 26.791 10.626 26.9574 10.6735 27.1238C10.6973 27.2189 10.7448 27.314 10.7686 27.4091C10.8399 27.5755 10.9112 27.7656 10.9825 27.932C11.0301 28.0271 11.0776 28.1222 11.1014 28.2173C11.1014 28.2411 11.1014 28.2411 11.1252 28.2886C11.0539 28.2648 10.9825 28.2411 10.935 28.2173C10.935 28.2411 10.9112 28.2648 10.9112 28.2648C10.9112 28.2886 10.9112 28.3362 10.9112 28.3599C10.9112 28.4312 10.935 28.455 11.0063 28.5026C11.2203 28.6214 11.4342 28.764 11.6482 28.9067C11.8146 29.0018 11.981 29.1206 12.1474 29.2157C12.2187 29.2632 12.29 29.287 12.3613 29.3346C12.3851 29.3583 12.4089 29.3583 12.4326 29.3583C12.599 29.3583 12.7654 29.3583 12.9556 29.3583C12.9794 29.3583 12.9794 29.3583 13.0031 29.3583C13.1696 29.3583 13.3122 29.3583 13.4786 29.3583C13.6212 29.3583 13.7401 29.3583 13.8827 29.3346H13.9065L13.9303 29.3108V29.287C13.9065 29.2632 13.8827 29.2632 13.8589 29.2395C13.7638 29.1919 13.645 29.1444 13.5499 29.0731C13.5261 29.0731 13.5261 29.0493 13.5024 29.0255C13.5974 29.0018 13.6688 29.0018 13.7401 28.978C13.8352 28.9542 13.9302 28.9542 14.0253 28.9304C14.0729 28.9067 14.1442 28.9067 14.1917 28.8829C14.4057 28.7878 14.5959 28.7165 14.8098 28.6214C15.0238 28.5501 15.2139 28.455 15.4279 28.3837C15.6418 28.3124 15.832 28.2411 16.0459 28.1697C16.0935 28.146 16.141 28.1222 16.1648 28.0747C16.1886 28.0271 16.2123 27.9558 16.2361 27.9083C16.2837 27.9083 16.3312 27.9083 16.3787 27.932C16.4025 27.932 16.4025 27.932 16.4263 27.9558C16.4738 27.9796 16.5214 27.9558 16.5451 27.932C16.5689 27.9083 16.5927 27.8845 16.6165 27.8845C16.7829 27.7419 16.9493 27.5992 17.1157 27.4566C17.3058 27.2902 17.496 27.1 17.6862 26.9336C17.9239 26.6959 18.1616 26.4582 18.4231 26.1967C18.4944 26.1254 18.5657 26.0303 18.6608 25.959C18.6846 25.9352 18.7084 25.9114 18.7322 25.8877C18.7559 25.9114 18.7559 25.9352 18.7559 25.9352C18.7559 26.0065 18.7322 26.1016 18.7322 26.1729C18.7084 26.3155 18.7084 26.4344 18.6846 26.577C18.6846 26.6484 18.6608 26.7197 18.6371 26.791C18.5657 27.0049 18.4944 27.2426 18.4231 27.4566C18.3756 27.5992 18.3518 27.7181 18.3043 27.8607C18.2567 28.0271 18.2329 28.2173 18.1854 28.3837C18.1854 28.4312 18.1616 28.455 18.1616 28.5026C18.1616 28.5739 18.1379 28.6214 18.1379 28.6927C18.1379 28.7403 18.0903 28.7878 18.0665 28.8354C17.9477 28.9304 17.8526 29.0255 17.7575 29.1206C17.5911 29.287 17.4247 29.4534 17.2583 29.6198C17.0681 29.81 16.9017 30.0002 16.7353 30.1903C16.6165 30.333 16.4738 30.4756 16.355 30.6182C16.2361 30.7609 16.1173 30.9273 15.9746 31.0699C15.8795 31.165 15.8082 31.2839 15.7131 31.4027C15.6656 31.4503 15.618 31.5216 15.5943 31.5691C15.5705 31.5929 15.5705 31.6167 15.5467 31.6404C15.523 31.6167 15.523 31.6167 15.4992 31.5929C15.4754 31.5453 15.4516 31.474 15.4279 31.4027C15.4279 31.3789 15.4041 31.3552 15.3803 31.3552C15.3566 31.3789 15.309 31.4027 15.2852 31.4265C15.0713 31.6167 14.8098 31.7593 14.5721 31.9257C14.2868 32.0921 14.0016 32.2585 13.6925 32.4011C13.5499 32.4724 13.3835 32.5438 13.2409 32.6151C13.122 32.6626 12.9794 32.7102 12.8605 32.7815C12.6466 32.8766 12.4326 32.9479 12.2187 33.0192C12.0998 33.0667 11.981 33.0905 11.8621 33.1381C11.7908 33.1618 11.6957 33.1856 11.6244 33.2094C11.4818 33.2569 11.3154 33.2807 11.1727 33.3282C11.0539 33.352 10.9112 33.3758 10.7686 33.3995C10.7448 33.3995 10.7448 33.3995 10.7211 33.3995C10.7211 33.3758 10.6973 33.352 10.7211 33.3282C10.7448 33.2094 10.7448 33.0905 10.7924 32.9716C10.7924 32.9479 10.8161 32.9241 10.7924 32.8766C10.7448 32.8766 10.7211 32.9003 10.6735 32.9003C10.4833 32.9716 10.3169 33.043 10.1268 33.0905C10.0079 33.1143 9.88905 33.1618 9.77019 33.2094C9.69887 33.2331 9.60378 33.2569 9.53247 33.2807C9.36607 33.3282 9.22344 33.3758 9.05703 33.3995C8.96195 33.4233 8.84309 33.4471 8.748 33.4709C8.65291 33.4946 8.55783 33.5184 8.46274 33.5422C8.41519 33.5422 8.36765 33.5659 8.32011 33.5659C8.17748 33.5897 8.01107 33.6135 7.86844 33.6373C7.8209 33.6373 7.79713 33.6373 7.74958 33.6373C7.63073 33.6373 7.51187 33.661 7.39301 33.661C7.25038 33.6848 7.10775 33.661 6.96512 33.6135C6.98889 33.6373 6.98889 33.6373 6.96512 33.6135ZM8.84309 26.6959C8.79554 26.6721 8.77177 26.6959 8.748 26.7197C8.70046 26.7434 8.65291 26.7672 8.60537 26.8148C8.55783 26.8623 8.51028 26.9336 8.48651 27.0049C8.41519 27.1238 8.34388 27.2426 8.29634 27.3615C8.22502 27.5041 8.1537 27.6468 8.08239 27.7894C7.96353 28.0747 7.86844 28.3837 7.8209 28.7165C7.79713 28.8829 7.8209 29.0731 7.86844 29.2395C7.86844 29.2632 7.89222 29.287 7.91599 29.287H7.93976C7.96353 29.2632 7.96353 29.2632 7.9873 29.2395C8.10616 29.0731 8.20125 28.9067 8.29634 28.7403C8.41519 28.5263 8.53405 28.2886 8.65291 28.0747C8.67668 28.0033 8.70046 27.9558 8.72423 27.8845C8.748 27.7894 8.748 27.6943 8.77177 27.5992C8.79554 27.5041 8.79554 27.409 8.79554 27.314C8.81931 27.1713 8.84309 27.0287 8.86686 26.9098C8.84309 26.791 8.84309 26.7434 8.84309 26.6959Z" fill="#5723B0"/>
<path d="M16.0222 15.0715C15.9984 15.0715 15.9746 15.0477 15.9509 15.0477C15.7844 15.0002 15.6418 14.9289 15.4754 14.8813C15.4279 14.8813 15.3803 14.8576 15.3328 14.8338C15.1426 14.7862 14.9762 14.7149 14.786 14.6912C14.6672 14.6674 14.5721 14.6436 14.4532 14.6436C14.3106 14.6198 14.1442 14.6198 14.0016 14.6198C13.9065 14.6198 13.8352 14.6198 13.7401 14.6198C13.5737 14.6436 13.4073 14.6912 13.2646 14.7625C13.1458 14.8338 13.0269 14.9289 12.9081 15.0477C12.7179 15.2379 12.5277 15.4043 12.3138 15.5707C12.2425 15.642 12.1474 15.6896 12.0761 15.7371C12.0523 15.7371 12.0523 15.7133 12.0285 15.7133C11.8859 15.5232 11.7432 15.333 11.6244 15.1428C11.5768 15.0715 11.5768 15.0002 11.5531 14.9289C11.5531 14.8813 11.5293 14.8576 11.5531 14.81C11.6006 14.7862 11.6482 14.7862 11.6957 14.81C11.767 14.8338 11.8621 14.8338 11.9334 14.81C12.0047 14.7862 12.0761 14.81 12.1236 14.7862C12.1474 14.7862 12.1949 14.7862 12.2187 14.7862C12.2425 14.7862 12.2425 14.7625 12.2662 14.7387C12.2425 14.7149 12.2425 14.6912 12.2187 14.6912C12.1711 14.6674 12.1236 14.6436 12.0523 14.6198C11.9572 14.5961 11.8859 14.5485 11.8146 14.501C11.6957 14.4297 11.6006 14.3584 11.4818 14.287C11.4104 14.2395 11.3391 14.1919 11.2916 14.1444C11.244 14.0969 11.1727 14.0493 11.1252 14.0018C11.0776 13.9542 11.0539 13.9067 11.0539 13.8354C11.0539 13.7878 11.0539 13.7641 11.0539 13.7165C11.0539 13.5263 11.0776 13.3599 11.1252 13.1698C11.1252 13.1698 11.1252 13.146 11.149 13.146C11.149 13.1698 11.149 13.1935 11.149 13.2173C11.149 13.4075 11.1727 13.5739 11.1965 13.7403C11.1965 13.7641 11.2203 13.8116 11.2203 13.8354C11.2203 13.8591 11.2678 13.8829 11.2916 13.8829H11.3154C11.4818 13.8591 11.6482 13.8354 11.8146 13.8116C12.0047 13.7878 12.2187 13.7403 12.4089 13.6927C12.5277 13.669 12.6466 13.6452 12.7417 13.6214C12.9081 13.5739 13.0745 13.5501 13.2409 13.5026C13.431 13.455 13.5974 13.4075 13.7876 13.3837C13.954 13.3362 14.1204 13.3124 14.2631 13.2648C14.3819 13.2411 14.5008 13.2173 14.6196 13.1935C14.786 13.1698 14.9524 13.1222 15.1426 13.0984C15.2852 13.0747 15.4279 13.0509 15.5705 13.0509C15.7131 13.0509 15.8558 13.0271 15.9984 13.0271C16.1173 13.0271 16.2599 13.0509 16.3787 13.0984C16.5214 13.146 16.664 13.2411 16.7829 13.3362C16.9017 13.4313 17.0444 13.5501 17.1632 13.6452C17.3534 13.8116 17.5436 13.978 17.71 14.1682L17.7337 14.1919C17.71 14.2157 17.71 14.2157 17.6862 14.1919C17.5673 14.1444 17.4485 14.0731 17.3296 14.0018C17.187 13.9305 17.0681 13.8591 16.9255 13.8116C16.8066 13.7641 16.664 13.7165 16.5451 13.6927C16.4263 13.669 16.3074 13.669 16.1886 13.7165C16.1173 13.7403 16.0697 13.7403 15.9984 13.7641C15.6894 13.8591 15.4041 13.978 15.1426 14.1206C15.0238 14.1919 14.9049 14.2633 14.786 14.3108C14.786 14.3108 14.7623 14.3108 14.7623 14.3346C14.7385 14.3346 14.7385 14.3821 14.7623 14.3821C14.786 14.3821 14.8098 14.4059 14.8336 14.4059C14.9524 14.4297 15.0713 14.4772 15.1902 14.5248C15.4279 14.6198 15.6656 14.7625 15.9033 14.9051C15.9509 14.9289 15.9746 14.9526 16.0222 14.9764C15.9984 15.024 16.0222 15.0477 16.0222 15.0715Z" fill="#5723B0"/>
<path d="M19.1363 16.4978C19.1601 16.5216 19.1838 16.5453 19.1838 16.5453C19.2551 16.6642 19.3027 16.7831 19.374 16.8782C19.4691 17.0683 19.5879 17.2585 19.683 17.4487C19.7306 17.5438 19.8019 17.6626 19.8732 17.7577C19.897 17.829 19.9445 17.8766 19.9445 17.9479C20.0158 18.1618 20.0872 18.352 20.1347 18.5659C20.1585 18.6135 20.1585 18.661 20.1822 18.7086C20.1822 18.7561 20.1822 18.7799 20.1585 18.8274C20.0872 18.9225 20.0158 19.0414 19.9445 19.1365C19.8019 19.3266 19.6593 19.493 19.5166 19.6832C19.374 19.8734 19.2314 20.0636 19.0887 20.2537C18.9223 20.4677 18.7797 20.7054 18.6133 20.9431C18.4231 21.2522 18.233 21.5612 18.019 21.8465C17.9715 21.9178 17.9001 22.0129 17.8526 22.1079C17.8288 22.1555 17.7813 22.1793 17.7575 22.203C17.6862 22.2506 17.6387 22.3219 17.5673 22.3694C17.5436 22.3932 17.496 22.417 17.4723 22.4408C17.4485 22.4408 17.4485 22.417 17.4485 22.3932C17.4485 22.3219 17.4723 22.2506 17.4723 22.1793C17.496 22.0366 17.5198 21.894 17.5436 21.7276C17.5673 21.5374 17.6149 21.3472 17.6624 21.1571C17.6862 21.0144 17.7337 20.8956 17.7813 20.753C17.8526 20.5628 17.9239 20.3964 18.0428 20.23C18.1141 20.1349 18.1616 20.0636 18.2092 19.9685C18.2805 19.8734 18.3518 19.7545 18.4231 19.6594C18.4944 19.5406 18.5658 19.4455 18.6371 19.3266C18.7559 19.1127 18.8986 18.9225 19.0174 18.7086C19.1125 18.5422 19.2076 18.352 19.3027 18.1856C19.374 18.0192 19.3978 17.8528 19.374 17.6864C19.3502 17.5675 19.3265 17.4249 19.3027 17.306C19.2551 17.0683 19.2076 16.8544 19.1363 16.6167C19.1601 16.5929 19.1363 16.5691 19.1363 16.4978Z" fill="#5723B0"/>
<path d="M16.9255 15.9986C16.8304 16.0224 16.7591 16.0461 16.664 16.0699C16.5927 16.0937 16.4976 16.1175 16.4263 16.1175C16.2837 16.1412 16.141 16.1888 15.9984 16.2125C15.9033 16.2363 15.8082 16.2601 15.6894 16.2839C15.6418 16.2839 15.6181 16.3076 15.5705 16.3076C15.3803 16.3314 15.1902 16.3552 15 16.3552C14.8574 16.3552 14.691 16.3552 14.5483 16.3314C14.5246 16.3314 14.5246 16.3314 14.5008 16.3314C14.3819 16.3314 14.2393 16.3076 14.1204 16.3076C13.954 16.2839 13.7876 16.2601 13.6212 16.2601C13.5737 16.2601 13.5261 16.2601 13.4786 16.2363C13.3122 16.2363 13.1458 16.2125 12.9556 16.2125C12.813 16.2125 12.6704 16.2363 12.5277 16.2601C12.504 16.2601 12.4802 16.2601 12.4802 16.2601C12.4564 16.2601 12.4564 16.2601 12.4326 16.2363C12.4802 16.2125 12.5277 16.165 12.5515 16.165C12.6704 16.0937 12.7892 16.0224 12.8843 15.9035C12.9556 15.8322 13.0032 15.7609 13.0745 15.6896C13.1933 15.5707 13.336 15.4281 13.5024 15.3568C13.6688 15.2617 13.8352 15.2141 14.0254 15.1904C14.2155 15.1666 14.4057 15.1904 14.5959 15.2379C14.7623 15.2617 14.9287 15.3092 15.0951 15.3568C15.1426 15.3805 15.2139 15.4043 15.2615 15.4043C15.4992 15.4994 15.7369 15.5707 15.9746 15.6658C16.1173 15.7133 16.2599 15.7847 16.4263 15.8322C16.5214 15.8797 16.6165 15.9035 16.7116 15.9511C16.7829 15.9273 16.8542 15.9511 16.9255 15.9986Z" fill="#5723B0"/>
<path d="M15.1426 16.8068C15.2852 16.7831 15.4279 16.7831 15.5467 16.7593C15.7607 16.7118 15.9984 16.7118 16.2123 16.6642C16.355 16.6404 16.4976 16.6167 16.6402 16.5929C16.6878 16.5929 16.7353 16.5691 16.8066 16.5691C16.8066 16.5929 16.8066 16.5929 16.8066 16.6167C16.7591 16.688 16.6878 16.7831 16.6402 16.8544C16.5927 16.9257 16.5214 16.9257 16.4501 16.9495C16.3787 16.9495 16.3312 16.9495 16.2599 16.9495C16.2361 16.9495 16.2361 16.9495 16.2123 16.9495C16.0222 16.9495 15.8082 16.9257 15.618 16.9019C15.4754 16.9019 15.3566 16.8544 15.2139 16.8306C15.1902 16.8306 15.1664 16.8068 15.1426 16.8068Z" fill="#5723B0"/>
<path d="M9.84147 5.2775C9.91279 5.2775 9.91279 5.2775 9.93656 5.22995C10.0079 4.99223 10.0792 4.77829 10.1505 4.54057C10.198 4.39794 10.2456 4.25531 10.2694 4.11268C10.2931 4.01759 10.3407 3.89873 10.3644 3.80364C10.3882 3.7561 10.3882 3.7561 10.4358 3.73233C10.5071 3.73233 10.5784 3.70856 10.6259 3.70856C10.6497 3.70856 10.6735 3.70856 10.6973 3.70856C10.6973 3.73233 10.6973 3.7561 10.6973 3.77987C10.4833 4.49303 10.2694 5.22995 10.0554 5.94311C10.0079 5.94311 9.96033 5.96688 9.91279 5.96688C9.86524 5.96688 9.84147 5.96688 9.79393 5.96688C9.74638 5.96688 9.72261 5.96688 9.72261 5.91933C9.69884 5.82425 9.6513 5.72916 9.62752 5.65784C9.57998 5.53898 9.55621 5.4439 9.50866 5.32504C9.46112 5.18241 9.41358 5.03978 9.36603 4.92092C9.31849 4.77829 9.27095 4.63566 9.2234 4.49303C9.2234 4.46925 9.19963 4.44548 9.19963 4.44548C9.17586 4.42171 9.12832 4.42171 9.12832 4.44548C9.10454 4.49303 9.10454 4.5168 9.08077 4.56434C9.03323 4.6832 8.98569 4.82583 8.93814 4.94469C8.8906 5.08732 8.84305 5.22995 8.79551 5.37258C8.74797 5.49144 8.7242 5.6103 8.67665 5.72916C8.65288 5.82425 8.60534 5.91933 8.55779 6.01442C8.55779 6.01442 8.55779 6.01442 8.53402 6.03819C8.43893 6.03819 8.34385 6.03819 8.22499 6.06196C8.20122 6.03819 8.17745 5.99065 8.17745 5.94311C8.1299 5.80047 8.08236 5.65784 8.05859 5.53898C8.01104 5.39635 7.9635 5.2775 7.93973 5.13486C7.86841 4.89715 7.7971 4.6832 7.72578 4.44548C7.67824 4.30285 7.63069 4.13645 7.58315 3.99382C7.55938 3.9225 7.7971 3.9225 7.82087 3.9225C7.86841 3.9225 7.91596 3.89873 7.93973 3.94628C7.9635 3.97005 7.9635 4.04136 7.98727 4.08891C8.01104 4.13645 8.01104 4.18399 8.03481 4.23154C8.08236 4.37417 8.1299 4.49303 8.15367 4.63566C8.20122 4.77829 8.22499 4.92092 8.27253 5.03978C8.2963 5.13486 8.34385 5.25372 8.36762 5.34881C8.36762 5.34881 8.36762 5.37258 8.39139 5.37258C8.39139 5.39635 8.41516 5.39635 8.43893 5.37258L8.46271 5.34881C8.53402 5.18241 8.58157 4.99223 8.65288 4.82583C8.70042 4.70697 8.7242 4.58811 8.77174 4.49303C8.81928 4.37417 8.84306 4.27908 8.8906 4.16022C8.91437 4.11268 8.93814 4.04136 8.96191 3.99382C8.98569 3.94627 8.98569 3.87496 9.00946 3.85119C9.057 3.80364 9.2234 3.80364 9.27095 3.80364C9.31849 3.80364 9.34226 3.82742 9.34226 3.85119C9.41358 4.01759 9.46112 4.20776 9.53244 4.37417C9.62752 4.61188 9.69884 4.82583 9.79393 5.06355C9.79393 5.15864 9.8177 5.22995 9.84147 5.2775Z" fill="#5723B0"/>
</svg>
